<svg width="1822" height="400" viewBox="0 0 1822 400" xmlns="http://www.w3.org/2000/svg">
<path d="M1503.29 105.66H1588.27L1652.25 275.472C1654.66 281.551 1656.85 287.946 1658.82 294.654C1660.79 301.363 1662.32 308.386 1663.41 315.723H1664.72C1665.82 308.386 1667.35 301.363 1669.32 294.654C1671.29 287.946 1673.47 281.551 1675.88 275.472L1742.16 105.66H1821.89L1705.74 393.082H1620.43L1503.29 105.66Z"/>
<path d="M1144.2 393.082V105.66H1229.51V146.226H1230.17C1238.7 131.342 1251.39 119.707 1268.23 111.321C1285.07 102.725 1305.31 98.4277 1328.93 98.4277C1359.12 98.4277 1383.29 106.499 1401.45 122.642C1419.82 138.784 1429.01 165.409 1429.01 202.516V393.082H1342.39V217.296C1342.39 197.38 1337.9 183.229 1328.93 174.843C1320.18 166.247 1307.82 161.95 1291.85 161.95C1278.29 161.95 1266.15 165.828 1255.43 173.585C1244.93 181.342 1236.73 191.405 1230.82 203.774V393.082H1144.2Z"/>
<path d="M755.252 253.459V243.396C755.252 199.162 769.252 163.837 797.252 137.421C825.252 111.006 862.768 97.7988 909.799 97.7988C955.955 97.7988 991.393 110.377 1016.11 135.535C1041.05 160.692 1053.52 195.493 1053.52 239.937V263.522H800.861V218.554H968.861L969.189 216.667C968.971 200.524 964.158 186.583 954.752 174.843C945.564 162.893 930.252 156.918 908.814 156.918C886.721 156.918 869.986 164.465 858.611 179.56C847.236 194.654 841.549 213.312 841.549 235.535V254.088C841.549 281.132 847.674 302.306 859.924 317.61C872.174 332.914 889.783 340.566 912.752 340.566C929.158 340.566 942.83 337.421 953.768 331.132C964.924 324.843 973.564 316.457 979.689 305.975L1051.22 327.988C1042.03 349.581 1026.28 366.981 1003.97 380.189C981.877 393.396 951.689 400 913.408 400C863.096 400 824.158 386.897 796.596 360.692C769.033 334.486 755.252 298.742 755.252 253.459Z"/>
<path d="M356.462 254.088V244.025C356.462 202.096 367.946 167.505 390.915 140.252C413.884 112.998 444.181 99.3711 481.806 99.3711C504.993 99.3711 524.571 102.935 540.54 110.063C556.509 117.191 568.978 126.625 577.946 138.365V0H662.931V393.082H579.587L579.259 351.258H578.931C569.962 364.465 557.274 375.786 540.868 385.22C524.462 394.654 504.774 399.371 481.806 399.371C443.087 399.371 412.462 385.639 389.931 358.176C367.618 330.713 356.462 296.017 356.462 254.088ZM444.399 253.145C444.399 278.721 449.868 299.686 460.806 316.038C471.962 332.39 489.243 340.566 512.649 340.566C528.181 340.566 541.415 336.268 552.353 327.673C563.509 319.078 571.493 309.329 576.306 298.428V197.484C571.712 186.583 563.837 177.358 552.681 169.811C541.524 162.055 528.181 158.176 512.649 158.176C489.024 158.176 471.743 166.352 460.806 182.704C449.868 199.057 444.399 219.916 444.399 245.283V253.145Z"/>
<path d="M0 300.943L77.1094 301.572V308.176C77.1094 324.109 82.3594 335.325 92.8594 341.824C103.359 348.113 117.578 351.258 135.516 351.258C153.234 351.258 166.469 348.532 175.219 343.082C183.969 337.631 188.344 329.14 188.344 317.61C188.344 306.709 183.094 298.428 172.594 292.767C162.094 287.107 142.953 281.342 115.172 275.472C77.5469 268.134 50.0938 257.337 32.8125 243.082C15.75 228.826 7.21875 208.91 7.21875 183.333C7.21875 155.87 18.7031 134.696 41.6719 119.811C64.8594 104.927 96.7969 97.4843 137.484 97.4843C177.734 97.4843 209.344 105.241 232.312 120.755C255.5 136.059 267.094 158.281 267.094 187.421V194.025H189.984V187.736C189.984 173.061 185.172 162.893 175.547 157.233C166.141 151.363 152.797 148.428 135.516 148.428C119.984 148.428 108.391 150.839 100.734 155.66C93.0781 160.482 89.25 168.029 89.25 178.302C89.25 187.317 94.2812 194.549 104.344 200C114.625 205.451 133.438 211.006 160.781 216.667C199.719 224.214 228.484 234.801 247.078 248.428C265.672 262.054 274.969 281.132 274.969 305.66C274.969 336.478 263.266 359.958 239.859 376.101C216.672 392.034 182.547 400 137.484 400C93.5156 400 59.7188 392.034 36.0938 376.101C12.6875 359.958 0.65625 337.002 0 307.233V300.943Z"/>
</svg>
