<svg width="320" height="180" viewBox="0 0 320 180" fill="none" xmlns="http://www.w3.org/2000/svg">
<rect width="320" height="180" fill="white"/>
<path fill-rule="evenodd" clip-rule="evenodd" d="M46.5008 77C38.9001 77 34.1509 80.8184 32.2499 88.4552C35.1003 84.6368 38.4254 83.2052 42.2252 84.1592C44.3932 84.7034 45.9435 86.284 47.658 88.034C50.4526 90.8837 53.6872 94.1816 60.7507 94.1816C68.3503 94.1816 73.1007 90.3632 75.0006 82.7276C72.1513 86.546 68.8262 87.9776 65.0263 87.0224C62.8572 86.4782 61.3069 84.8976 59.5924 83.1487C56.7979 80.2968 53.5643 77 46.5008 77ZM32.2499 94.1816C24.6502 94.1816 19.8999 98 18 105.637C20.8504 101.818 24.1755 100.387 27.9742 101.341C30.1433 101.885 31.6936 103.466 33.4081 105.216C36.2027 108.065 39.4362 111.363 46.5008 111.363C54.1005 111.363 58.8508 107.546 60.7507 99.9092C57.9003 103.728 54.5752 105.159 50.7754 104.205C48.6074 103.66 47.0571 102.079 45.3426 100.33C42.548 97.4806 39.3134 94.1816 32.2499 94.1816Z" fill="#38BDF8"/>
<path fill-rule="evenodd" clip-rule="evenodd" d="M103.497 91.4798H98.5232V101.152C98.5232 103.732 100.208 103.691 103.497 103.53V107.44C96.8377 108.246 94.1906 106.392 94.1906 101.152V91.4798H90.5002V87.2877H94.1906V81.8751L98.5232 80.5847V87.2877H103.497V91.4798ZM122.456 87.2877H126.787V107.44H122.456V104.538C120.931 106.673 118.564 107.964 115.436 107.964C109.981 107.964 105.448 103.329 105.448 97.3632C105.448 91.359 109.981 86.7639 115.436 86.7639C118.564 86.7639 120.931 88.0532 122.456 90.1498V87.2877ZM116.118 103.812C119.728 103.812 122.456 101.112 122.456 97.3632C122.456 93.6148 119.728 90.9153 116.118 90.9153C112.508 90.9153 109.781 93.616 109.781 97.3632C109.781 101.112 112.508 103.812 116.118 103.812ZM134.007 84.2653C132.484 84.2653 131.24 82.976 131.24 81.4845C131.244 80.7454 131.537 80.0377 132.056 79.5165C132.574 78.9954 133.276 78.7031 134.007 78.7037C134.739 78.7028 135.441 78.9949 135.959 79.5162C136.478 80.0374 136.771 80.7452 136.775 81.4845C136.775 82.9748 135.532 84.2653 134.007 84.2653ZM131.841 107.44V87.2877H136.174V107.44H131.841ZM141.188 107.44V78.0161H145.519V107.439H141.188V107.44ZM173.638 87.2877H178.211L171.914 107.44H167.661L163.49 93.8576L159.278 107.44H155.027L148.728 87.2877H153.301L157.192 101.192L161.404 87.2877H165.536L169.707 101.192L173.638 87.2877ZM183.586 84.2653C182.061 84.2653 180.818 82.976 180.818 81.4845C180.821 80.7452 181.115 80.0374 181.633 79.5162C182.152 78.9949 182.854 78.7028 183.586 78.7037C184.317 78.7028 185.019 78.9949 185.538 79.5162C186.057 80.0374 186.35 80.7452 186.353 81.4845C186.353 82.9748 185.11 84.2653 183.586 84.2653ZM181.42 107.44V87.2877H185.751V107.44H181.42ZM201.315 86.7639C205.807 86.7639 209.016 89.8269 209.016 95.0668V107.439H204.685V95.5093C204.685 92.4463 202.92 90.8351 200.192 90.8351C197.344 90.8351 195.098 92.5276 195.098 96.6384V107.44H190.765V87.2877H195.098V89.8676C196.421 87.7721 198.587 86.7639 201.315 86.7639ZM229.553 79.2276H233.886V107.439H229.553V104.537C228.03 106.673 225.663 107.963 222.534 107.963C217.079 107.963 212.547 103.328 212.547 97.3621C212.547 91.3579 217.079 86.7627 222.534 86.7627C225.663 86.7627 228.03 88.0521 229.553 90.1487V79.2276ZM223.216 103.812C226.826 103.812 229.553 101.112 229.553 97.3632C229.553 93.6148 226.826 90.9153 223.216 90.9153C219.606 90.9153 216.878 93.616 216.878 97.3632C216.878 101.112 219.606 103.812 223.216 103.812ZM248.406 107.964C242.349 107.964 237.816 103.329 237.816 97.3632C237.816 91.359 242.349 86.7639 248.406 86.7639C252.336 86.7639 255.746 88.8187 257.35 91.963L253.62 94.1398C252.737 92.2453 250.773 91.0361 248.366 91.0361C244.836 91.0361 242.149 93.7368 242.149 97.3632C242.149 100.991 244.836 103.691 248.366 103.691C250.773 103.691 252.737 102.442 253.7 100.588L257.431 102.724C255.746 105.908 252.336 107.964 248.406 107.964ZM264.57 92.8493C264.57 96.5176 275.361 94.3001 275.361 101.757C275.361 105.788 271.87 107.964 267.539 107.964C263.528 107.964 260.64 106.149 259.356 103.248L263.087 101.072C263.728 102.885 265.333 103.974 267.539 103.974C269.465 103.974 270.948 103.329 270.948 101.716C270.948 98.1298 260.158 100.145 260.158 92.9306C260.158 89.1416 263.407 86.7639 267.499 86.7639C270.788 86.7639 273.516 88.296 274.92 90.956L271.27 93.0108C270.547 91.4392 269.143 90.7132 267.499 90.7132C265.934 90.7132 264.57 91.3985 264.57 92.8493ZM283.062 92.8493C283.062 96.5176 293.852 94.3001 293.852 101.757C293.852 105.788 290.362 107.964 286.03 107.964C282.019 107.964 279.132 106.149 277.847 103.248L281.578 101.072C282.22 102.885 283.824 103.974 286.03 103.974C287.955 103.974 289.44 103.329 289.44 101.716C289.44 98.1298 278.65 100.145 278.65 92.9306C278.65 89.1416 281.898 86.7639 285.991 86.7639C289.279 86.7639 292.007 88.296 293.411 90.956L289.76 93.0108C289.039 91.4392 287.635 90.7132 285.991 90.7132C284.426 90.7132 283.062 91.3985 283.062 92.8493Z" fill="#0F172A"/>
</svg>
