<svg width="320" height="180" viewBox="0 0 320 180" fill="none" xmlns="http://www.w3.org/2000/svg">
<rect width="320" height="180" fill="white"/>
<path d="M71.8762 117.231C69.6203 115.169 68.9617 110.836 69.9016 107.697C71.5313 109.676 73.7895 110.303 76.1284 110.657C79.7393 111.203 83.2855 110.999 86.6399 109.348C87.0236 109.159 87.3782 108.908 87.7975 108.654C88.1123 109.566 88.1942 110.488 88.0843 111.427C87.8169 113.712 86.6798 115.477 84.8711 116.815C84.1479 117.35 83.3826 117.829 82.6356 118.333C80.3408 119.884 79.7199 121.703 80.5822 124.348C80.6027 124.413 80.621 124.477 80.6674 124.634C79.4958 124.11 78.6399 123.347 77.9878 122.343C77.299 121.283 76.9714 120.111 76.9541 118.843C76.9455 118.226 76.9455 117.603 76.8625 116.995C76.6599 115.512 75.9635 114.848 74.6518 114.809C73.3055 114.77 72.2406 115.602 71.9582 116.913C71.9366 117.014 71.9053 117.113 71.8741 117.23L71.8762 117.231Z" fill="#17191E"/>
<path d="M59 107.173C59 107.173 65.6804 103.919 72.3794 103.919L77.4302 88.2879C77.6193 87.532 78.1715 87.0182 78.7948 87.0182C79.4181 87.0182 79.9702 87.532 80.1594 88.2879L85.2102 103.919C93.1441 103.919 98.5897 107.173 98.5897 107.173C98.5897 107.173 87.2424 76.2618 87.2202 76.1998C86.8945 75.2859 86.3448 74.6973 85.6036 74.6973H71.9872C71.246 74.6973 70.7184 75.2859 70.3705 76.1998C70.346 76.2607 59 107.173 59 107.173Z" fill="#17191E"/>
<path d="M129.433 97.2303C129.433 99.9695 126.026 101.605 121.308 101.605C118.238 101.605 117.152 100.844 117.152 99.2466C117.152 97.5727 118.5 96.7738 121.57 96.7738C124.341 96.7738 126.699 96.8118 129.433 97.1542V97.2303ZM129.47 93.8444C127.786 93.464 125.239 93.2357 122.207 93.2357C113.37 93.2357 109.214 95.3281 109.214 100.198C109.214 105.258 112.06 107.198 118.65 107.198C124.228 107.198 128.01 105.79 129.395 102.328H129.62C129.582 103.165 129.545 104.002 129.545 104.649C129.545 106.437 129.844 106.589 131.305 106.589H138.194C137.819 105.524 137.595 102.518 137.595 99.9314C137.595 97.1542 137.707 95.0618 137.707 92.2465C137.707 86.5019 134.263 82.8496 123.479 82.8496C118.837 82.8496 113.67 83.6486 109.739 84.8279C110.113 86.3877 110.637 89.5454 110.899 91.5998C114.306 90.0019 119.136 89.3171 122.881 89.3171C128.047 89.3171 129.47 90.4965 129.47 92.8933V93.8444Z" fill="#17191E"/>
<path d="M148.373 98.8282C147.437 98.9423 146.164 98.9423 144.853 98.9423C143.468 98.9423 142.195 98.9043 141.334 98.7902C141.334 99.0945 141.296 99.4369 141.296 99.7413C141.296 104.497 144.404 107.274 155.337 107.274C165.633 107.274 168.965 104.535 168.965 99.7032C168.965 95.1379 166.757 92.8933 156.984 92.3987C149.383 92.0563 148.71 91.2194 148.71 90.2683C148.71 89.165 149.683 88.5943 154.775 88.5943C160.055 88.5943 161.477 89.3172 161.477 90.839V91.1813C162.226 91.1433 163.574 91.1053 164.959 91.1053C166.27 91.1053 167.692 91.1433 168.516 91.2194C168.516 90.877 168.554 90.5726 168.554 90.3063C168.554 84.7138 163.911 82.8877 154.925 82.8877C144.816 82.8877 141.408 85.3606 141.408 90.1922C141.408 94.5292 144.142 97.2304 153.839 97.6488C160.99 97.8771 161.777 98.6761 161.777 99.7793C161.777 100.959 160.616 101.491 155.599 101.491C149.833 101.491 148.373 100.692 148.373 99.0565V98.8282Z" fill="#17191E"/>
<path d="M181.324 78.7788C178.591 81.3278 173.686 83.8767 170.953 84.5615C170.99 85.9692 170.99 88.5562 170.99 89.9638L173.499 90.0018C173.461 92.703 173.424 95.9748 173.424 98.1433C173.424 103.203 176.082 107.008 184.357 107.008C187.839 107.008 190.16 106.627 193.043 106.018C192.743 104.154 192.406 101.301 192.294 99.1325C190.572 99.7031 188.4 100.007 186.004 100.007C182.672 100.007 181.324 99.0944 181.324 96.4694C181.324 94.1867 181.324 92.0562 181.361 90.078C185.63 90.116 189.898 90.1921 192.406 90.2682C192.369 88.2899 192.444 85.4365 192.556 83.5343C188.924 83.6104 184.843 83.6485 181.474 83.6485C181.511 81.9745 181.549 80.3767 181.586 78.7788H181.324Z" fill="#17191E"/>
<path d="M203.686 88.8224C203.724 86.844 203.761 85.1701 203.798 83.5342H196.272C196.385 86.806 196.385 90.1539 196.385 95.0616C196.385 99.9693 196.347 103.355 196.272 106.589H204.884C204.734 104.306 204.697 100.464 204.697 97.1921C204.697 92.0181 206.794 90.5344 211.549 90.5344C213.758 90.5344 215.331 90.8007 216.716 91.2952C216.753 89.355 217.128 85.5886 217.352 83.9147C215.929 83.4962 214.357 83.2299 212.447 83.2299C208.366 83.1918 205.371 84.8658 203.986 88.8604L203.686 88.8224Z" fill="#17191E"/>
<path d="M241.175 94.9097C241.175 99.0566 238.18 100.997 233.462 100.997C228.782 100.997 225.787 99.1707 225.787 94.9097C225.787 90.6488 228.819 89.0509 233.462 89.0509C238.142 89.0509 241.175 90.7629 241.175 94.9097ZM249 94.7195C249 86.4639 242.56 82.7737 233.462 82.7737C224.327 82.7737 218.111 86.4639 218.111 94.7195C218.111 102.937 223.915 107.35 233.425 107.35C243.01 107.35 249 102.937 249 94.7195Z" fill="#17191E"/>
</svg>
