<svg width="320" height="180" viewBox="0 0 320 180" fill="none" xmlns="http://www.w3.org/2000/svg">
<rect width="320" height="180" fill="white"/>
<path d="M112.684 105.971L114.134 101.285H123.331L124.781 105.971H131.475L122.993 79.324H114.909L105.93 105.971H112.684ZM121.881 96.5788H115.743L118.861 86.8295L121.881 96.5788ZM141.903 105.971V78.5694H135.547V105.971H141.903ZM155.013 115.462L155.012 105.147L155.032 105.165C155.232 105.35 155.445 105.515 155.672 105.661L155.787 105.732C156.754 106.315 157.959 106.606 159.402 106.606C161.058 106.606 162.61 106.196 164.06 105.375C165.51 104.554 166.682 103.37 167.576 101.821C168.47 100.272 168.917 98.3989 168.917 96.2015C168.917 93.9909 168.477 92.1112 167.596 90.5624C166.715 89.0137 165.573 87.8289 164.17 87.0082C162.766 86.1875 161.283 85.7771 159.72 85.7771C158.542 85.7771 157.429 86.0783 156.383 86.6806C155.63 87.1142 154.981 87.7383 154.438 88.5528L154.359 88.6729L153.841 86.4125H148.656V115.462H155.013ZM158.389 100.808C157.78 100.808 157.217 100.696 156.701 100.471C156.185 100.246 155.774 99.9345 155.47 99.5373C155.165 99.1402 155.013 98.6769 155.013 98.1474H155.012V94.9308L155.015 94.7943C155.032 94.208 155.161 93.6889 155.402 93.2369L155.46 93.1338C155.758 92.6241 156.171 92.2303 156.701 91.9524C157.231 91.6744 157.833 91.5354 158.509 91.5354C159.343 91.5354 160.061 91.7273 160.664 92.1112C161.266 92.4951 161.733 93.0378 162.064 93.7394C162.395 94.441 162.561 95.2617 162.561 96.2015C162.561 97.3135 162.339 98.207 161.895 98.8821C161.452 99.5572 160.909 100.047 160.267 100.351C159.624 100.656 158.999 100.808 158.389 100.808ZM177.756 83.8908C178.921 83.8908 179.842 83.5831 180.517 82.9675C181.193 82.352 181.53 81.4816 181.53 80.3565C181.53 79.2578 181.193 78.3808 180.517 77.7255C179.842 77.0703 178.921 76.7427 177.756 76.7427C176.551 76.7427 175.621 77.0703 174.965 77.7255C174.31 78.3808 173.982 79.2578 173.982 80.3565C173.982 81.4816 174.31 82.352 174.965 82.9675C175.621 83.5831 176.551 83.8908 177.756 83.8908ZM180.934 105.971V86.2934H174.578V105.971H180.934ZM194.6 105.971V97.7304L194.601 97.5283C194.616 96.1928 194.782 95.1007 195.098 94.2521L195.146 94.1266C195.511 93.2198 195.997 92.5613 196.606 92.1509C197.216 91.7406 197.884 91.5354 198.613 91.5354C199.328 91.5354 199.937 91.7836 200.44 92.28C200.943 92.7764 201.195 93.5408 201.195 94.5733V105.971H207.591V94.5733C207.591 92.8657 207.339 91.3501 206.836 90.0263C206.333 88.7026 205.548 87.6635 204.482 86.9089C203.416 86.1544 202.042 85.7771 200.361 85.7771C198.891 85.7771 197.576 86.1875 196.418 87.0082C195.699 87.5176 195.074 88.2081 194.543 89.0796L194.489 89.1711L193.845 86.4125H188.244V105.971H194.6ZM221.634 106.606C223.25 106.606 224.677 106.315 225.915 105.732C227.153 105.15 228.159 104.362 228.934 103.37C229.709 102.377 230.195 101.271 230.394 100.054H224.077C223.905 100.57 223.601 100.947 223.164 101.185C222.727 101.424 222.217 101.543 221.634 101.543C220.919 101.543 220.327 101.374 219.856 101.036C219.386 100.699 219.032 100.226 218.794 99.6168C218.555 99.0078 218.436 98.2864 218.436 97.4525L218.437 97.4922H230.195C230.509 96.0876 230.57 94.7217 230.379 93.3944L230.344 93.1735C230.113 91.777 229.623 90.5227 228.874 89.4108C228.126 88.2989 227.143 87.4153 225.925 86.76C224.706 86.1048 223.276 85.7771 221.634 85.7771C219.979 85.7771 218.43 86.1875 216.986 87.0082C215.543 87.8289 214.377 89.0104 213.49 90.5525C212.603 92.0947 212.159 93.9446 212.159 96.1023C212.159 98.2599 212.606 100.126 213.5 101.702C214.394 103.277 215.563 104.488 217.006 105.335C218.449 106.182 219.992 106.606 221.634 106.606ZM224.653 94.2755H218.465L218.465 94.27C218.513 93.727 218.622 93.2443 218.791 92.8219L218.843 92.697C219.115 92.0814 219.499 91.6115 219.995 91.2872C220.492 90.9629 221.078 90.8007 221.753 90.8007C222.363 90.8007 222.862 90.9232 223.253 91.168C223.644 91.4129 223.945 91.7373 224.157 92.141C224.369 92.5447 224.511 92.9849 224.584 93.4614C224.62 93.6997 224.643 93.9363 224.651 94.1713L224.653 94.2755ZM237.147 106.328C238.405 106.328 239.445 105.948 240.266 105.186C241.087 104.425 241.498 103.456 241.498 102.277C241.498 101.099 241.087 100.12 240.266 99.3388C239.445 98.5578 238.405 98.1673 237.147 98.1673C235.889 98.1673 234.866 98.5578 234.079 99.3388C233.291 100.12 232.897 101.099 232.897 102.277C232.897 103.442 233.291 104.409 234.079 105.176C234.866 105.944 235.889 106.328 237.147 106.328ZM249.284 83.8908C250.449 83.8908 251.37 83.5831 252.045 82.9675C252.72 82.352 253.058 81.4816 253.058 80.3565C253.058 79.2578 252.72 78.3808 252.045 77.7255C251.37 77.0703 250.449 76.7427 249.284 76.7427C248.119 76.7427 247.192 77.0703 246.503 77.7255C245.814 78.3808 245.47 79.2578 245.47 80.3565C245.47 81.4816 245.814 82.352 246.503 82.9675C247.192 83.5831 248.119 83.8908 249.284 83.8908ZM245.49 116.157C247.807 116.157 249.562 115.525 250.754 114.261C251.946 112.996 252.542 110.862 252.542 107.857V86.3331H246.146V107.738C246.146 108.876 245.944 109.637 245.54 110.021C245.136 110.405 244.523 110.597 243.702 110.597C243.067 110.597 242.378 110.504 241.637 110.319C240.895 110.134 240.24 109.929 239.67 109.704V115.164C240.584 115.416 241.491 115.644 242.391 115.849C243.292 116.054 244.325 116.157 245.49 116.157ZM267.399 106.606C269.041 106.606 270.511 106.302 271.809 105.693C273.107 105.084 274.13 104.293 274.878 103.32C275.626 102.347 276 101.318 276 100.232C276 99.0409 275.616 98.0481 274.848 97.2539C274.08 96.4597 273.027 95.7978 271.69 95.2683L266.287 93.104C265.453 92.8128 265.036 92.4157 265.036 91.9126C265.036 91.542 265.234 91.2442 265.631 91.0191C266.029 90.7941 266.572 90.6816 267.26 90.6816C268.095 90.6816 268.69 90.8371 269.048 91.1482C269.405 91.4593 269.584 91.8266 269.584 92.2502H275.404C275.391 90.3705 274.682 88.8217 273.279 87.6039C271.875 86.3861 269.869 85.7771 267.26 85.7771C264.479 85.7771 262.288 86.3133 260.685 87.3855C259.083 88.4577 258.282 89.8609 258.282 91.5949C258.282 92.826 258.663 93.8883 259.424 94.7818C260.186 95.6754 261.268 96.4133 262.672 96.9958L267.419 98.8424C267.922 99.0409 268.293 99.2395 268.531 99.4381C268.77 99.6366 268.889 99.9014 268.889 100.232C268.889 100.484 268.803 100.719 268.631 100.937C268.459 101.156 268.2 101.331 267.856 101.463C267.512 101.596 267.075 101.662 266.545 101.662C265.671 101.662 264.979 101.53 264.469 101.265C263.96 101 263.691 100.524 263.665 99.8352H257.924C257.911 101.357 258.305 102.618 259.106 103.618C259.908 104.617 261.023 105.365 262.453 105.861C263.883 106.358 265.532 106.606 267.399 106.606Z" fill="#2D3441"/>
<path fill-rule="evenodd" clip-rule="evenodd" d="M81.3994 77.5596L95.7992 91.891L81.3994 106.222L66.9995 91.891L81.3994 77.5596Z" fill="#77C1D2"/>
<path fill-rule="evenodd" clip-rule="evenodd" d="M45.3996 77.5596L75.2523 107.27H46.4526L30.9998 91.891L45.3996 77.5596Z" fill="#2D3441"/>
</svg>
