<svg width="512" height="512" viewBox="0 0 512 512" fill="none" xmlns="http://www.w3.org/2000/svg">
<rect width="512" height="512" fill="white"/>
<path d="M250.128 271.622V265.357C250.128 239.251 256.981 217.713 270.686 200.744C284.392 183.775 302.47 175.291 324.921 175.291C338.757 175.291 350.44 177.51 359.969 181.948C369.497 186.386 376.937 192.26 382.289 199.569V113.42H433V358.163H383.268L383.072 332.123H382.877C377.525 340.346 369.954 347.395 360.164 353.268C350.375 359.142 338.627 362.079 324.921 362.079C301.817 362.079 283.543 353.529 270.099 336.43C256.785 319.331 250.128 297.728 250.128 271.622ZM302.601 271.035C302.601 286.959 305.864 300.012 312.39 310.194C319.047 320.375 329.359 325.465 343.326 325.465C352.594 325.465 360.491 322.79 367.017 317.438C373.674 312.086 378.439 306.017 381.31 299.229V236.379C378.569 229.591 373.87 223.848 367.213 219.149C360.556 214.319 352.594 211.905 343.326 211.905C329.229 211.905 318.917 216.995 312.39 227.177C305.864 237.358 302.601 250.346 302.601 266.14V271.035Z" fill="#111111"/>
<path d="M63.0796 300.795L109.091 301.187V305.299C109.091 315.219 112.224 322.202 118.489 326.249C124.755 330.164 133.239 332.122 143.943 332.122C154.516 332.122 162.413 330.426 167.634 327.032C172.855 323.638 175.466 318.352 175.466 311.172C175.466 304.385 172.333 299.229 166.068 295.705C159.802 292.18 148.381 288.591 131.804 284.936C109.352 280.367 92.9709 273.645 82.6591 264.769C72.4777 255.893 67.3871 243.493 67.3871 227.568C67.3871 210.469 74.2399 197.285 87.9455 188.018C101.782 178.75 120.839 174.116 145.118 174.116C169.135 174.116 187.997 178.946 201.702 188.605C215.538 198.134 222.457 211.97 222.457 230.113V234.225H176.445V230.309C176.445 221.172 173.573 214.841 167.83 211.317C162.217 207.662 154.255 205.835 143.943 205.835C134.675 205.835 127.757 207.336 123.189 210.338C118.62 213.34 116.336 218.039 116.336 224.435C116.336 230.048 119.338 234.551 125.342 237.945C131.477 241.339 142.703 244.798 159.019 248.322C182.253 253.021 199.418 259.613 210.513 268.098C221.608 276.582 227.156 288.46 227.156 303.732C227.156 322.92 220.172 337.539 206.206 347.59C192.369 357.51 172.007 362.471 145.118 362.471C118.881 362.471 98.7142 357.51 84.617 347.59C70.6503 337.539 63.4712 323.246 63.0796 304.711V300.795Z" fill="#111111"/>
</svg>
